<svg width="877" height="631" viewBox="0 0 877 631" fill="none" xmlns="http://www.w3.org/2000/svg">
<rect x="579.002" y="304.016" width="20.9997" height="20.9968" rx="2.09983" fill="#1E22AA"/>
<rect x="579.002" y="388.008" width="20.9997" height="20.9968" rx="2.09983" fill="#F58D2E"/>
<rect width="20.9997" height="20.9968" rx="2.09983" transform="matrix(-1 0 0 1 683.997 304.008)" fill="#F58D2E"/>
<rect width="20.9997" height="20.9968" rx="2.09983" transform="matrix(-1 0 0 1 600 304.008)" fill="#F58D2E"/>
<rect width="20.9997" height="20.9968" rx="2.09983" transform="matrix(-1 0 0 1 620.994 367)" fill="#1E22AA"/>
<rect width="20.9997" height="20.9968" rx="2.09983" transform="matrix(-1 0 0 1 641.998 262)" fill="#F58D2E"/>
<rect width="20.9997" height="20.9968" rx="2.09983" transform="matrix(-1 0 0 1 641.998 346)" fill="#F58D2E"/>
<rect width="20.9997" height="20.9968" rx="2.09983" transform="matrix(-1 0 0 1 662.998 283.004)" fill="#1E22AA"/>
<rect width="20.9997" height="20.9968" rx="2.09983" transform="matrix(-1 0 0 1 620.999 283.004)" fill="#1E22AA"/>
<rect width="20.9997" height="20.9968" rx="2.09983" transform="matrix(-1 0 0 1 662.996 325.008)" fill="#1E22AA"/>
<rect x="495" y="304" width="20.9997" height="20.9968" rx="2.09983" fill="#F58D2E"/>
<rect x="558" y="366.984" width="20.9997" height="20.9968" rx="2.09983" fill="#1E22AA"/>
<rect x="536.999" y="262" width="20.9997" height="20.9968" rx="2.09983" fill="#F58D2E"/>
<rect x="536.998" y="345.992" width="20.9997" height="20.9968" rx="2.09983" fill="#F58D2E"/>
<rect x="516.002" y="283.004" width="20.9997" height="20.9968" rx="2.09983" fill="#1E22AA"/>
<rect x="558.001" y="283.004" width="20.9997" height="20.9968" rx="2.09983" fill="#1E22AA"/>
<rect x="516.004" y="324.988" width="20.9997" height="20.9968" rx="2.09983" fill="#1E22AA"/>
<path d="M318.586 322.229L154.87 288.266L147.622 323.203L311.337 357.166L318.586 322.229Z" fill="white" stroke="#1E22AA" stroke-width="6.144" stroke-linecap="round" stroke-linejoin="round"/>
<path d="M154.795 255.414L144.404 305.511L226.427 322.522L238.93 356.176L347.026 378.632C352.893 379.848 359.003 378.685 364.012 375.397C369.021 372.109 372.52 366.965 373.737 361.099L381.125 325.463C382.341 319.597 381.178 313.486 377.889 308.477C374.602 303.468 369.458 299.97 363.592 298.752L154.795 255.414Z" fill="white" stroke="#1E22AA" stroke-width="6.144" stroke-linecap="round" stroke-linejoin="round"/>
<path d="M177.962 359.68L140.018 366.057L146.394 404.002L184.339 397.624L177.962 359.68Z" fill="white" stroke="#1E22AA" stroke-width="6.144" stroke-linecap="round" stroke-linejoin="round"/>
<path d="M203.197 509.836L165.252 516.21L171.629 554.157L209.574 547.775L203.197 509.836Z" fill="white" stroke="#1E22AA" stroke-width="6.144" stroke-linecap="round" stroke-linejoin="round"/>
<path d="M201.298 394.777L135.141 405.896L154.598 521.666L220.754 510.553L201.298 394.777Z" fill="white" stroke="#1E22AA" stroke-width="6.144" stroke-linecap="round" stroke-linejoin="round"/>
<path d="M157.154 368.093C175.68 368.093 190.7 353.073 190.7 334.546C190.7 316.019 175.68 301 157.154 301C138.626 301 123.607 316.019 123.607 334.546C123.607 353.073 138.626 368.093 157.154 368.093Z" fill="white" stroke="#1E22AA" stroke-width="6.144" stroke-linecap="round" stroke-linejoin="round"/>
<path d="M157.154 345.493C163.198 345.493 168.098 340.594 168.098 334.549C168.098 328.505 163.198 323.605 157.154 323.605C151.11 323.605 146.21 328.505 146.21 334.549C146.21 340.594 151.11 345.493 157.154 345.493Z" fill="white" stroke="#1E22AA" stroke-width="6.144" stroke-linecap="round" stroke-linejoin="round"/>
<path d="M180.593 424.143L197.358 421.324" stroke="#1E22AA" stroke-width="6.144" stroke-linecap="round" stroke-linejoin="round"/>
<path d="M182.613 436.162L199.379 433.344" stroke="#1E22AA" stroke-width="6.144" stroke-linecap="round" stroke-linejoin="round"/>
<path d="M184.632 448.174L201.398 445.363" stroke="#1E22AA" stroke-width="6.144" stroke-linecap="round" stroke-linejoin="round"/>
<path d="M171.331 568.236H124.721L137.132 550.695H183.742L171.331 568.236Z" fill="white" stroke="#1E22AA" stroke-width="6.144" stroke-linecap="round" stroke-linejoin="round"/>
<path d="M206.49 568.235H293.167L260.051 541.117L192.236 550.694L206.49 568.235Z" fill="white" stroke="#1E22AA" stroke-width="6.144" stroke-linecap="round" stroke-linejoin="round"/>
<path d="M189.74 558.543C196.361 558.543 201.729 553.175 201.729 546.555C201.729 539.935 196.361 534.566 189.74 534.566C183.119 534.566 177.752 539.935 177.752 546.555C177.752 553.175 183.119 558.543 189.74 558.543Z" fill="white" stroke="#1E22AA" stroke-width="6.144" stroke-linecap="round" stroke-linejoin="round"/>
<path d="M203.372 251.912C203.342 250.114 202.65 248.391 201.429 247.072C200.207 245.752 198.542 244.93 196.751 244.762C169.103 242.136 170.424 225.316 160.571 225.316C150.249 225.316 143.291 230.454 143.291 239.985C143.291 249.516 151.47 255.683 161.477 256.651L190.131 256.751C197.65 256.751 203.372 259.055 203.372 252.066V251.912Z" fill="white" stroke="#1E22AA" stroke-width="9.216" stroke-miterlimit="10" stroke-linecap="round"/>
<path d="M200.515 180.588C244.959 191.463 283.014 213.166 319.97 238.034C335.691 248.295 337.88 271.296 324.486 284.391L255.619 353.011C250.817 357.813 244.353 360.586 237.565 360.757C230.776 360.927 224.181 358.483 219.145 353.928C214.107 349.373 211.013 343.057 210.502 336.285C209.991 329.514 212.101 322.804 216.398 317.545L277.776 242.151L284.926 290.312C276.478 285.804 268.191 281.534 259.897 277.594C236.604 266.45 210.614 256.988 185.977 253.632C181.128 252.958 176.459 251.335 172.238 248.856C168.016 246.377 164.324 243.09 161.373 239.184C158.422 235.278 156.269 230.829 155.038 226.09C153.807 221.352 153.521 216.417 154.197 211.569C157.1 189.627 179.149 174.943 200.515 180.626V180.588Z" fill="#1E22AA"/>
<path d="M277.123 84.3828L282.499 98.7982L236.343 196.15H167.223C172.146 133.251 199.31 88.3303 277.123 84.3828Z" fill="white" stroke="#1E22AA" stroke-width="6.144" stroke-miterlimit="10" stroke-linecap="round"/>
<path d="M304.231 118.039L308.126 117.816C317.976 117.253 325.505 108.812 324.942 98.9626L323.101 66.7434C322.538 56.8938 314.097 49.3651 304.247 49.9281L300.353 50.1508C290.502 50.7137 282.974 59.1548 283.536 69.0044L285.377 101.223C285.94 111.073 294.381 118.601 304.231 118.039Z" fill="white" stroke="#1E22AA" stroke-width="6.144" stroke-miterlimit="10" stroke-linecap="round"/>
<path d="M315.961 77.6725C317.076 77.6725 317.981 76.7678 317.981 75.6527C317.981 74.5368 317.076 73.6328 315.961 73.6328C314.845 73.6328 313.941 74.5368 313.941 75.6527C313.941 76.7678 314.845 77.6725 315.961 77.6725Z" fill="#1E22AA"/>
<path d="M325.598 76.4453L330.498 81.9288" stroke="#1E22AA" stroke-width="6.144" stroke-miterlimit="10" stroke-linecap="round"/>
<path d="M351.219 65.3906L286.361 67.5256" stroke="#1E22AA" stroke-width="6.144" stroke-miterlimit="10" stroke-linecap="round"/>
<path d="M309.217 65.9414C309.217 65.9414 315.422 75.0115 298.703 80.9942C293.78 82.7606 284.042 94.2883 284.042 94.2883L282.506 66.8784L309.217 65.9414Z" fill="#1E22AA"/>
<path d="M294.663 75.2712L293.941 75.2942C292.127 75.3518 290.703 76.8694 290.759 78.6834L290.971 85.385C291.029 87.199 292.547 88.6236 294.361 88.566L295.083 88.5437C296.897 88.4861 298.321 86.9686 298.264 85.1545L298.052 78.453C297.995 76.6382 296.477 75.2143 294.663 75.2712Z" fill="white"/>
<path d="M303.673 87.2229L298.32 87.3919L298.005 77.3925L303.289 75.0117L303.673 87.2229Z" fill="#1E22AA"/>
<path d="M367.447 227.181H462.633V212.312L367.447 221.052V227.181Z" fill="#1E22AA" stroke="#1E22AA" stroke-width="6.144" stroke-linecap="round" stroke-linejoin="round"/>
<path d="M385.595 180.421C390.117 180.421 393.782 176.755 393.782 172.234C393.782 167.713 390.117 164.047 385.595 164.047C381.074 164.047 377.408 167.713 377.408 172.234C377.408 176.755 381.074 180.421 385.595 180.421Z" fill="white" stroke="#1E22AA" stroke-width="6.144" stroke-linecap="round" stroke-linejoin="round"/>
<path d="M385.594 210.54V182.754" stroke="#1E22AA" stroke-width="6.144" stroke-linecap="round" stroke-linejoin="round"/>
<path d="M368.531 227.56C353.551 230.091 338.215 229.585 323.434 226.07C290.041 218.037 277.63 201.494 260.964 182.686C252.862 173.531 245.205 164.891 234.699 157.526C231.836 155.519 229.396 152.967 227.519 150.017C225.642 147.066 224.364 143.774 223.76 140.331C222.537 133.375 224.128 126.218 228.182 120.436C232.237 114.653 238.422 110.718 245.378 109.495C252.334 108.274 259.491 109.865 265.273 113.919C280.917 124.886 291.5 136.836 300.839 147.389C318.772 167.648 337.365 203.883 374.06 195.005C389.812 191.203 401.839 201.917 401.255 216.601C400.925 224.934 387.784 224.373 368.531 227.56Z" fill="white" stroke="#1E22AA" stroke-width="6.144" stroke-miterlimit="10" stroke-linecap="round"/>
<path d="M289.257 135.691C274.85 144.255 263.145 155.498 254.989 170.29" stroke="#1E22AA" stroke-width="6.144" stroke-miterlimit="10" stroke-linecap="round"/>
<path d="M462.641 210.386C462.641 312.069 382.769 394.507 284.227 394.507C185.684 394.507 105.812 312.069 105.812 210.386C105.812 108.703 185.684 3.64062 284.227 3.64062C382.769 3.64062 462.641 108.703 462.641 210.386Z" stroke="#1E22AA" stroke-width="6.144" stroke-miterlimit="10" stroke-linecap="round"/>
<path d="M105.812 228.953H462.641V266.316C462.641 300.312 449.136 332.916 425.098 356.956C401.06 380.995 368.457 394.501 334.461 394.503H233.999C200.002 394.503 167.397 380.998 143.357 356.958C119.318 332.918 105.812 300.313 105.812 266.316V228.953Z" fill="white" stroke="#1E22AA" stroke-width="6.144" stroke-linecap="round" stroke-linejoin="round"/>
<path d="M411.876 198.028C416.241 198.028 419.779 194.49 419.779 190.125C419.779 185.761 416.241 182.223 411.876 182.223C407.512 182.223 403.974 185.761 403.974 190.125C403.974 194.49 407.512 198.028 411.876 198.028Z" fill="white" stroke="#1E22AA" stroke-width="6.144" stroke-linecap="round" stroke-linejoin="round"/>
<path d="M398.021 224.411L408.067 199.543" stroke="#1E22AA" stroke-width="6.144" stroke-linecap="round" stroke-linejoin="round"/>
<path d="M204.143 322.221L40.4273 288.258L33.1797 323.195L196.895 357.158L204.143 322.221Z" fill="white" stroke="#1E22AA" stroke-width="6.144" stroke-linecap="round" stroke-linejoin="round"/>
<path d="M40.3559 255.414L29.9648 305.511L111.987 322.522L124.49 356.176L232.586 378.632C238.453 379.848 244.563 378.685 249.573 375.397C254.582 372.109 258.08 366.965 259.297 361.099L266.693 325.463C267.91 319.597 266.746 313.486 263.458 308.477C260.17 303.468 255.026 299.97 249.16 298.752L40.3559 255.414Z" fill="white" stroke="#1E22AA" stroke-width="6.144" stroke-linecap="round" stroke-linejoin="round"/>
<path d="M63.5217 359.688L25.5771 366.064L31.9538 404.009L69.8984 397.632L63.5217 359.688Z" fill="white" stroke="#1E22AA" stroke-width="6.144" stroke-linecap="round" stroke-linejoin="round"/>
<path d="M88.7649 509.836L50.8203 516.21L57.197 554.157L95.1424 547.783L88.7649 509.836Z" fill="white" stroke="#1E22AA" stroke-width="6.144" stroke-linecap="round" stroke-linejoin="round"/>
<path d="M86.8582 394.781L20.7012 405.9L40.1584 521.673L106.316 510.552L86.8582 394.781Z" fill="white" stroke="#1E22AA" stroke-width="6.144" stroke-linecap="round" stroke-linejoin="round"/>
<path d="M42.7142 368.093C61.2414 368.093 76.2604 353.073 76.2604 334.546C76.2604 316.019 61.2414 301 42.7142 301C24.187 301 9.16797 316.019 9.16797 334.546C9.16797 353.073 24.187 368.093 42.7142 368.093Z" fill="white" stroke="#1E22AA" stroke-width="6.144" stroke-linecap="round" stroke-linejoin="round"/>
<path d="M42.7135 345.493C48.7585 345.493 53.6575 340.594 53.6575 334.549C53.6575 328.505 48.7585 323.605 42.7135 323.605C36.6694 323.605 31.7695 328.505 31.7695 334.549C31.7695 340.594 36.6694 345.493 42.7135 345.493Z" fill="white" stroke="#1E22AA" stroke-width="6.144" stroke-linecap="round" stroke-linejoin="round"/>
<path d="M66.1611 424.143L82.9189 421.324" stroke="#1E22AA" stroke-width="6.144" stroke-linecap="round" stroke-linejoin="round"/>
<path d="M68.1807 436.162L84.9384 433.344" stroke="#1E22AA" stroke-width="6.144" stroke-linecap="round" stroke-linejoin="round"/>
<path d="M70.1934 448.174L86.9588 445.363" stroke="#1E22AA" stroke-width="6.144" stroke-linecap="round" stroke-linejoin="round"/>
<path d="M56.899 568.236H10.2891L22.6923 550.695H69.3022L56.899 568.236Z" fill="white" stroke="#1E22AA" stroke-width="6.144" stroke-linecap="round" stroke-linejoin="round"/>
<path d="M92.0578 568.235H178.727L145.618 541.117L77.8037 550.694L92.0578 568.235Z" fill="white" stroke="#1E22AA" stroke-width="6.144" stroke-linecap="round" stroke-linejoin="round"/>
<path d="M75.3078 558.543C81.9288 558.543 87.2963 553.175 87.2963 546.555C87.2963 539.935 81.9288 534.566 75.3078 534.566C68.6861 534.566 63.3193 539.935 63.3193 546.555C63.3193 553.175 68.6861 558.543 75.3078 558.543Z" fill="white" stroke="#1E22AA" stroke-width="6.144" stroke-linecap="round" stroke-linejoin="round"/>
<path d="M382.523 327.672L363.771 352.574L388.674 371.327L407.425 346.424L382.523 327.672Z" fill="white" stroke="#1E22AA" stroke-width="6.144" stroke-linecap="round" stroke-linejoin="round"/>
<path d="M442.472 412.632C453.738 412.632 462.87 403.5 462.87 392.234C462.87 380.968 453.738 371.836 442.472 371.836C431.207 371.836 422.074 380.968 422.074 392.234C422.074 403.5 431.207 412.632 442.472 412.632Z" fill="white" stroke="#1E22AA" stroke-width="6.144" stroke-linecap="round" stroke-linejoin="round"/>
<path d="M402.172 326.352L369.557 369.839L426.757 412.739L459.373 369.252L402.172 326.352Z" fill="white" stroke="#1E22AA" stroke-width="6.144" stroke-linecap="round" stroke-linejoin="round"/>
<path d="M356.264 351.644C371.276 351.644 383.444 339.475 383.444 324.465C383.444 309.454 371.276 297.285 356.264 297.285C341.254 297.285 329.085 309.454 329.085 324.465C329.085 339.475 341.254 351.644 356.264 351.644Z" fill="white" stroke="#1E22AA" stroke-width="6.144" stroke-linecap="round" stroke-linejoin="round"/>
<path d="M356.265 333.335C361.164 333.335 365.135 329.363 365.135 324.464C365.135 319.565 361.164 315.594 356.265 315.594C351.366 315.594 347.395 319.565 347.395 324.464C347.395 329.363 351.366 333.335 356.265 333.335Z" fill="white" stroke="#1E22AA" stroke-width="6.144" stroke-linecap="round" stroke-linejoin="round"/>
<path d="M560.668 368.094L536.914 387.025L539.118 401.64L539.456 403.898L554.924 401.302L553.772 393.645L563.364 385.996L574.784 390.481L575.875 397.777L591.342 395.181L588.938 379.199L560.668 368.094Z" fill="white" stroke="#1E22AA" stroke-width="6.144" stroke-linecap="round" stroke-linejoin="round"/>
<path d="M563.61 441.425L590.92 428.138L591.964 413.393L592.126 411.112L576.466 410.275L575.921 418.001L564.885 423.369L554.724 416.503L555.246 409.138L539.587 408.301L538.442 424.421L563.61 441.425Z" fill="white" stroke="#1E22AA" stroke-width="6.144" stroke-linecap="round" stroke-linejoin="round"/>
<path d="M449.513 377.029L446.378 414.915C445.557 424.832 452.931 433.537 462.848 434.357L516.509 438.798C526.423 439.619 535.133 432.244 535.954 422.327L539.088 384.44C539.909 374.524 532.529 365.819 522.614 364.999L468.954 360.558C459.038 359.738 450.333 367.112 449.513 377.029Z" fill="white" stroke="#1E22AA" stroke-width="6.144" stroke-linecap="round" stroke-linejoin="round"/>
<path d="M418.902 241.16H462.64V266.304H418.902C415.568 266.304 412.37 264.98 410.013 262.622C407.655 260.264 406.33 257.067 406.33 253.732C406.33 250.398 407.655 247.2 410.013 244.843C412.37 242.485 415.568 241.16 418.902 241.16Z" stroke="#1E22AA" stroke-width="6.144" stroke-linecap="round" stroke-linejoin="round"/>
<path d="M399.127 99.4336C404.982 108.825 409.871 118.786 413.719 129.163" stroke="#F6802E" stroke-width="6.52032" stroke-miterlimit="10" stroke-linecap="round"/>
<path d="M389.918 86.4922C390.691 87.4545 391.459 88.4298 392.222 89.4183" stroke="#F6802E" stroke-width="6.52032" stroke-miterlimit="10" stroke-linecap="round"/>
</svg>
